<svg width="1280" height="760" viewBox="0 0 1280 760" fill="none" xmlns="http://www.w3.org/2000/svg">
  <rect width="1280" height="760" fill="#F6F8FB"/>
  <rect x="0" y="0" width="248" height="760" fill="#172033"/>
  <rect x="32" y="32" width="168" height="34" rx="8" fill="#FFFFFF" fill-opacity="0.12"/>
  <text x="48" y="55" fill="#FFFFFF" font-family="Arial, sans-serif" font-size="18" font-weight="700">Intern Pilot</text>
  <rect x="24" y="122" width="200" height="44" rx="8" fill="#FFFFFF" fill-opacity="0.08"/>
  <text x="54" y="151" fill="#CAD5E7" font-family="Arial, sans-serif" font-size="14">数据看板</text>
  <rect x="24" y="178" width="200" height="44" rx="8" fill="#2F7CF6"/>
  <text x="54" y="207" fill="#FFFFFF" font-family="Arial, sans-serif" font-size="14" font-weight="700">投递记录</text>
  <text x="54" y="263" fill="#CAD5E7" font-family="Arial, sans-serif" font-size="14">岗位推荐</text>
  <text x="54" y="319" fill="#CAD5E7" font-family="Arial, sans-serif" font-size="14">面试题库</text>

  <rect x="248" y="0" width="1032" height="72" fill="#FFFFFF"/>
  <text x="288" y="46" fill="#111827" font-family="Arial, sans-serif" font-size="22" font-weight="700">投递记录</text>
  <rect x="1090" y="20" width="132" height="36" rx="18" fill="#EEF4FF"/>
  <text x="1121" y="43" fill="#2F7CF6" font-family="Arial, sans-serif" font-size="14">学生用户</text>

  <rect x="288" y="104" width="912" height="92" rx="8" fill="#FFFFFF" stroke="#E5EAF2"/>
  <rect x="320" y="132" width="220" height="36" rx="8" fill="#F8FAFD" stroke="#D8E0EC"/>
  <text x="340" y="155" fill="#667085" font-family="Arial, sans-serif" font-size="13">搜索公司 / 岗位</text>
  <rect x="560" y="132" width="150" height="36" rx="8" fill="#F8FAFD" stroke="#D8E0EC"/>
  <text x="582" y="155" fill="#667085" font-family="Arial, sans-serif" font-size="13">投递状态</text>
  <rect x="730" y="132" width="118" height="36" rx="8" fill="#2F7CF6"/>
  <text x="760" y="155" fill="#FFFFFF" font-family="Arial, sans-serif" font-size="13" font-weight="700">筛选</text>
  <rect x="1024" y="132" width="132" height="36" rx="8" fill="#16A34A"/>
  <text x="1052" y="155" fill="#FFFFFF" font-family="Arial, sans-serif" font-size="13" font-weight="700">新增记录</text>

  <rect x="288" y="220" width="912" height="426" rx="8" fill="#FFFFFF" stroke="#E5EAF2"/>
  <rect x="288" y="220" width="912" height="54" rx="8" fill="#F8FAFD"/>
  <text x="326" y="253" fill="#64748B" font-family="Arial, sans-serif" font-size="13" font-weight="700">公司</text>
  <text x="512" y="253" fill="#64748B" font-family="Arial, sans-serif" font-size="13" font-weight="700">岗位</text>
  <text x="720" y="253" fill="#64748B" font-family="Arial, sans-serif" font-size="13" font-weight="700">状态</text>
  <text x="856" y="253" fill="#64748B" font-family="Arial, sans-serif" font-size="13" font-weight="700">最近进展</text>
  <text x="1060" y="253" fill="#64748B" font-family="Arial, sans-serif" font-size="13" font-weight="700">操作</text>

  <g font-family="Arial, sans-serif" font-size="14">
    <line x1="288" y1="324" x2="1200" y2="324" stroke="#EEF2F7"/>
    <text x="326" y="306" fill="#111827" font-weight="700">星云科技</text>
    <text x="512" y="306" fill="#334155">Java 后端实习生</text>
    <rect x="704" y="286" width="74" height="28" rx="14" fill="#DCFCE7"/>
    <text x="724" y="305" fill="#15803D" font-size="12" font-weight="700">面试</text>
    <text x="856" y="306" fill="#475569">一面已预约，准备项目深挖</text>
    <text x="1060" y="306" fill="#2F7CF6" font-weight="700">更新</text>

    <line x1="288" y1="382" x2="1200" y2="382" stroke="#EEF2F7"/>
    <text x="326" y="364" fill="#111827" font-weight="700">量子互动</text>
    <text x="512" y="364" fill="#334155">AI 应用开发实习生</text>
    <rect x="704" y="344" width="74" height="28" rx="14" fill="#E0F2FE"/>
    <text x="718" y="363" fill="#0369A1" font-size="12" font-weight="700">已投递</text>
    <text x="856" y="364" fill="#475569">已发送定制简历版本 V3</text>
    <text x="1060" y="364" fill="#2F7CF6" font-weight="700">更新</text>

    <line x1="288" y1="440" x2="1200" y2="440" stroke="#EEF2F7"/>
    <text x="326" y="422" fill="#111827" font-weight="700">云帆数据</text>
    <text x="512" y="422" fill="#334155">数据分析实习生</text>
    <rect x="704" y="402" width="74" height="28" rx="14" fill="#FEF3C7"/>
    <text x="718" y="421" fill="#A16207" font-size="12" font-weight="700">笔试</text>
    <text x="856" y="422" fill="#475569">需要补充 SQL 与可视化案例</text>
    <text x="1060" y="422" fill="#2F7CF6" font-weight="700">更新</text>

    <line x1="288" y1="498" x2="1200" y2="498" stroke="#EEF2F7"/>
    <text x="326" y="480" fill="#111827" font-weight="700">北辰网络</text>
    <text x="512" y="480" fill="#334155">前端开发实习生</text>
    <rect x="704" y="460" width="74" height="28" rx="14" fill="#FEE2E2"/>
    <text x="724" y="479" fill="#B91C1C" font-size="12" font-weight="700">拒绝</text>
    <text x="856" y="480" fill="#475569">岗位方向不匹配，已归档</text>
    <text x="1060" y="480" fill="#2F7CF6" font-weight="700">查看</text>
  </g>

  <rect x="288" y="670" width="912" height="48" rx="8" fill="#FFFFFF" stroke="#E5EAF2"/>
  <text x="326" y="700" fill="#64748B" font-family="Arial, sans-serif" font-size="13">支持记录投递状态、面试进展、跟进备注和推荐岗位来源，帮助学生形成求职闭环。</text>
</svg>
