<svg xmlns="http://www.w3.org/2000/svg" width="1200" height="720" viewBox="0 0 1200 720">
  <rect width="1200" height="720" fill="#f4f7fb"/>
  <text x="60" y="70" font-family="Segoe UI, Microsoft YaHei" font-size="28" font-weight="700" fill="#172033">RAG 知识库管理</text>
  <text x="60" y="102" font-family="Segoe UI, Microsoft YaHei" font-size="15" fill="#667085">管理员维护岗位知识文档，系统自动切片并生成 Embedding</text>
  <rect x="60" y="140" width="1080" height="78" rx="8" fill="#fff" stroke="#dbe4f0"/>
  <rect x="90" y="164" width="220" height="34" rx="6" fill="#f8fafc" stroke="#d0d7e2"/>
  <text x="108" y="187" font-family="Segoe UI, Microsoft YaHei" font-size="13" fill="#667085">岗位方向：Java后端</text>
  <rect x="330" y="164" width="220" height="34" rx="6" fill="#f8fafc" stroke="#d0d7e2"/>
  <text x="348" y="187" font-family="Segoe UI, Microsoft YaHei" font-size="13" fill="#667085">类型：技能要求</text>
  <rect x="570" y="164" width="92" height="34" rx="6" fill="#2563eb"/>
  <text x="616" y="187" text-anchor="middle" font-family="Segoe UI, Microsoft YaHei" font-size="13" font-weight="700" fill="#fff">筛选</text>
  <rect x="682" y="164" width="110" height="34" rx="6" fill="#fff" stroke="#2563eb"/>
  <text x="737" y="187" text-anchor="middle" font-family="Segoe UI, Microsoft YaHei" font-size="13" fill="#2563eb">测试检索</text>
  <rect x="60" y="248" width="1080" height="372" rx="8" fill="#fff" stroke="#dbe4f0"/>
  <text x="90" y="292" font-family="Segoe UI, Microsoft YaHei" font-size="15" font-weight="700" fill="#172033">标题</text>
  <text x="390" y="292" font-family="Segoe UI, Microsoft YaHei" font-size="15" font-weight="700" fill="#172033">方向</text>
  <text x="540" y="292" font-family="Segoe UI, Microsoft YaHei" font-size="15" font-weight="700" fill="#172033">类型</text>
  <text x="720" y="292" font-family="Segoe UI, Microsoft YaHei" font-size="15" font-weight="700" fill="#172033">切片数</text>
  <text x="880" y="292" font-family="Segoe UI, Microsoft YaHei" font-size="15" font-weight="700" fill="#172033">状态</text>
  <line x1="90" y1="316" x2="1110" y2="316" stroke="#e6edf6"/>
  <text x="90" y="362" font-family="Segoe UI, Microsoft YaHei" font-size="15" fill="#172033">Java后端实习岗位能力模型</text>
  <text x="390" y="362" font-family="Segoe UI, Microsoft YaHei" font-size="15" fill="#475467">Java后端</text>
  <text x="540" y="362" font-family="Segoe UI, Microsoft YaHei" font-size="15" fill="#475467">技能要求</text>
  <text x="740" y="362" font-family="Segoe UI, Microsoft YaHei" font-size="15" fill="#475467">5</text>
  <rect x="870" y="340" width="58" height="28" rx="14" fill="#dcfce7"/>
  <text x="899" y="359" text-anchor="middle" font-family="Segoe UI, Microsoft YaHei" font-size="13" fill="#166534">启用</text>
  <line x1="90" y1="396" x2="1110" y2="396" stroke="#e6edf6"/>
  <text x="90" y="442" font-family="Segoe UI, Microsoft YaHei" font-size="15" fill="#172033">AI应用开发实习岗位知识</text>
  <text x="390" y="442" font-family="Segoe UI, Microsoft YaHei" font-size="15" fill="#475467">AI应用</text>
  <text x="540" y="442" font-family="Segoe UI, Microsoft YaHei" font-size="15" fill="#475467">岗位方向</text>
  <text x="740" y="442" font-family="Segoe UI, Microsoft YaHei" font-size="15" fill="#475467">4</text>
  <rect x="870" y="420" width="58" height="28" rx="14" fill="#dcfce7"/>
  <text x="899" y="439" text-anchor="middle" font-family="Segoe UI, Microsoft YaHei" font-size="13" fill="#166534">启用</text>
  <rect x="90" y="510" width="990" height="72" rx="8" fill="#f8fafc" stroke="#dbe4f0"/>
  <text x="116" y="542" font-family="Segoe UI, Microsoft YaHei" font-size="14" font-weight="700" fill="#172033">Chunk 1 · mock-embedding-64</text>
  <text x="116" y="566" font-family="Segoe UI, Microsoft YaHei" font-size="13" fill="#667085">Java后端岗位通常关注 Java 基础、Spring Boot、MySQL、Redis、接口设计和项目工程化能力...</text>
</svg>
