<svg xmlns="http://www.w3.org/2000/svg" width="1200" height="720" viewBox="0 0 1200 720">
  <rect width="1200" height="720" fill="#f4f7fb"/>
  <text x="60" y="70" font-family="Segoe UI, Microsoft YaHei" font-size="28" font-weight="700" fill="#172033">岗位推荐</text>
  <text x="60" y="102" font-family="Segoe UI, Microsoft YaHei" font-size="15" fill="#667085">基于简历技能、AI 分析分数和岗位方向生成可解释推荐</text>
  <rect x="60" y="140" width="320" height="480" rx="8" fill="#fff" stroke="#dbe4f0"/>
  <text x="90" y="186" font-family="Segoe UI, Microsoft YaHei" font-size="18" font-weight="700" fill="#172033">生成推荐</text>
  <rect x="90" y="230" width="260" height="44" rx="6" fill="#f8fafc" stroke="#d0d7e2"/>
  <text x="108" y="258" font-family="Segoe UI, Microsoft YaHei" font-size="14" fill="#475467">Java 后端简历</text>
  <rect x="90" y="300" width="260" height="44" rx="6" fill="#f8fafc" stroke="#d0d7e2"/>
  <text x="108" y="328" font-family="Segoe UI, Microsoft YaHei" font-size="14" fill="#475467">当前简历版本</text>
  <rect x="90" y="400" width="140" height="44" rx="6" fill="#2563eb"/>
  <text x="160" y="428" text-anchor="middle" font-family="Segoe UI, Microsoft YaHei" font-size="15" font-weight="700" fill="#fff">生成推荐</text>
  <g transform="translate(420 140)">
    <rect width="720" height="140" rx="8" fill="#fff" stroke="#dbe4f0"/>
    <text x="28" y="42" font-family="Segoe UI, Microsoft YaHei" font-size="20" font-weight="700" fill="#172033">字节跳动 - Java 后端实习生</text>
    <text x="28" y="72" font-family="Segoe UI, Microsoft YaHei" font-size="14" fill="#667085">Java后端 · 北京 · 日常实习</text>
    <text x="28" y="112" font-family="Segoe UI, Microsoft YaHei" font-size="14" fill="#16a34a">命中技能：Java、Spring Boot、MySQL、Redis</text>
    <text x="610" y="62" text-anchor="middle" font-family="Segoe UI, Microsoft YaHei" font-size="42" font-weight="700" fill="#2563eb">88</text>
    <rect x="564" y="82" width="92" height="28" rx="14" fill="#dcfce7"/>
    <text x="610" y="101" text-anchor="middle" font-family="Segoe UI, Microsoft YaHei" font-size="13" fill="#166534">强烈推荐</text>
  </g>
  <g transform="translate(420 310)">
    <rect width="720" height="140" rx="8" fill="#fff" stroke="#dbe4f0"/>
    <text x="28" y="42" font-family="Segoe UI, Microsoft YaHei" font-size="20" font-weight="700" fill="#172033">美团 - 后端开发实习生</text>
    <text x="28" y="72" font-family="Segoe UI, Microsoft YaHei" font-size="14" fill="#667085">Java后端 · 上海 · 暑期实习</text>
    <text x="28" y="112" font-family="Segoe UI, Microsoft YaHei" font-size="14" fill="#f59e0b">待补齐：消息队列、分布式事务</text>
    <text x="610" y="62" text-anchor="middle" font-family="Segoe UI, Microsoft YaHei" font-size="42" font-weight="700" fill="#2563eb">76</text>
    <rect x="564" y="82" width="92" height="28" rx="14" fill="#fef3c7"/>
    <text x="610" y="101" text-anchor="middle" font-family="Segoe UI, Microsoft YaHei" font-size="13" fill="#92400e">较推荐</text>
  </g>
  <g transform="translate(420 480)">
    <rect width="720" height="140" rx="8" fill="#fff" stroke="#dbe4f0"/>
    <text x="28" y="42" font-family="Segoe UI, Microsoft YaHei" font-size="20" font-weight="700" fill="#172033">小红书 - AI 应用开发实习生</text>
    <text x="28" y="72" font-family="Segoe UI, Microsoft YaHei" font-size="14" fill="#667085">AI应用 · 上海 · 日常实习</text>
    <text x="28" y="112" font-family="Segoe UI, Microsoft YaHei" font-size="14" fill="#16a34a">推荐理由：有 Prompt 与 RAG 项目经验</text>
    <text x="610" y="62" text-anchor="middle" font-family="Segoe UI, Microsoft YaHei" font-size="42" font-weight="700" fill="#2563eb">83</text>
    <rect x="564" y="82" width="92" height="28" rx="14" fill="#fef3c7"/>
    <text x="610" y="101" text-anchor="middle" font-family="Segoe UI, Microsoft YaHei" font-size="13" fill="#92400e">较推荐</text>
  </g>
</svg>
